<?xml version="1.0" encoding="utf-8"?>
<!-- Generator: Adobe Illustrator 28.0.0, SVG Export Plug-In . SVG Version: 6.00 Build 0)  -->
<svg version="1.1" id="Ebene_1" xmlns="http://www.w3.org/2000/svg" xmlns:xlink="http://www.w3.org/1999/xlink" x="0px" y="0px"
	 viewBox="0 0 3000 1200" style="enable-background:new 0 0 3000 1200;" xml:space="preserve">
<style type="text/css">
	.st0{opacity:0.95;fill:#010202;}
	.st1{fill:#010202;}
	.st2{fill-rule:evenodd;clip-rule:evenodd;fill:#010202;}
</style>
<g>
	<path class="st0" d="M1382.6,468.6c-16.8,0-33.8,4.5-45.3,12.7l10.9,21.3c7.6-6.1,19.1-9.8,30.3-9.8c16.4,0,24.2,7.6,24.2,20.7
		h-24.2c-32,0-45.1,12.9-45.1,31.4c0,18.2,14.6,31.8,39.2,31.8c15.4,0,26.3-5.1,32-14.6v13.1h28.5v-59.9
		C1433.1,483.4,1414.6,468.6,1382.6,468.6z M1402.7,541.9c-3.5,9.6-12.3,14.2-22.4,14.2c-10.7,0-17.2-5.1-17.2-12.7
		c0-7,4.5-12.3,18.7-12.3h20.9V541.9z"/>
	<path class="st0" d="M1522.7,468.6c-13.1,0-23.8,4.1-31.6,12.7v-50.9h-30.4v144.8h29.1V563c7.6,9.2,18.9,13.7,33,13.7
		c29.5,0,52.3-21.1,52.3-54.1C1575,489.6,1552.2,468.6,1522.7,468.6z M1517.4,551.7c-15.2,0-26.7-10.9-26.7-29.1
		c0-18.2,11.5-29.1,26.7-29.1s26.7,10.9,26.7,29.1C1544.2,540.8,1532.7,551.7,1517.4,551.7z"/>
	<path class="st0" d="M1674.7,483.6c-8-10.1-20.1-15-34.7-15c-29.1,0-52.5,20.1-52.5,50.7c0,30.6,23.4,50.7,52.5,50.7
		c13.7,0,25.2-4.3,33.2-13.1v4.5c0,18.9-9.4,28.7-30.8,28.7c-13.5,0-28.1-4.7-37.1-11.9l-12.1,21.9c12.3,9.6,31.6,14.4,51.5,14.4
		c37.9,0,58.9-18,58.9-57v-87.4h-28.9V483.6z M1646.1,545.1c-16,0-27.7-10.3-27.7-25.8c0-15.4,11.7-25.8,27.7-25.8
		c16,0,27.5,10.3,27.5,25.8C1673.6,534.7,1662.1,545.1,1646.1,545.1z"/>
	<path class="st0" d="M1780.1,468.6c-32,0-56,22.6-56,54.1c0,31.2,23.6,54.1,59.9,54.1c18.9,0,33.6-5.9,43.3-17l-16.2-17.6
		c-7.2,6.8-15.2,10.1-26.3,10.1c-16,0-27.1-8-30.1-21.1h79.4c0.2-2.5,0.6-5.9,0.6-8.2C1834.8,489.2,1811,468.6,1780.1,468.6z
		 M1754.4,513.4c2.1-13.5,12.1-21.9,26-21.9c13.7,0,23.6,8.6,25.8,21.9H1754.4z"/>
	<rect x="1855.1" y="430.3" class="st0" width="30.4" height="144.8"/>
	<path class="st0" d="M1929.1,421.5c-11.3,0-18.9,7.4-18.9,17s7.6,17,18.9,17s18.9-7.4,18.9-17.6
		C1948,428.5,1940.4,421.5,1929.1,421.5z"/>
	<rect x="1913.8" y="470.1" class="st0" width="30.4" height="105"/>
	<path class="st0" d="M2023.1,493.5c9.6,0,18,4.5,23.6,14.4l23.6-12.7c-7.6-17.2-25-26.7-47-26.7c-34.2,0-58.6,22.4-58.6,54.1
		c0,31.6,24.4,54.1,58.6,54.1c22.1,0,39.4-9.8,47-26.5l-23.6-12.9c-5.7,10.1-14.1,14.4-23.6,14.4c-15.4,0-27.5-10.7-27.5-29.1
		C1995.6,504.3,2007.7,493.5,2023.1,493.5z"/>
	<path class="st0" d="M2151,468.6c-13.5,0-25.2,4.3-33.4,12.5v-50.7h-30.4v144.8h30.4v-51.9c0-19.3,10.5-28.3,25.2-28.3
		c13.5,0,21.3,7.8,21.3,24.8v55.4h30.4V515C2194.5,483,2175.8,468.6,2151,468.6z"/>
	<path class="st0" d="M2269.3,552.5c-8.2,0-13.1-4.9-13.1-13.9v-42.7h26.2v-23.4h-26.2v-25.6h-30.4v25.6h-16.2v23.4h16.2V539
		c0,25,14.4,37.7,39.2,37.7c9.4,0,18.5-2.1,24.8-6.6l-8.2-21.5C2278.2,551.1,2273.7,552.5,2269.3,552.5z"/>
	<path class="st0" d="M2351.8,468.6c-32,0-56,22.6-56,54.1c0,31.2,23.6,54.1,59.9,54.1c18.9,0,33.6-5.9,43.3-17l-16.2-17.6
		c-7.2,6.8-15.2,10.1-26.3,10.1c-16,0-27.1-8-30.1-21.1h79.4c0.2-2.5,0.6-5.9,0.6-8.2C2406.5,489.2,2382.7,468.6,2351.8,468.6z
		 M2326.1,513.4c2.1-13.5,12.1-21.9,26-21.9c13.7,0,23.6,8.6,25.8,21.9H2326.1z"/>
	<path class="st0" d="M2474,552.5c-8.2,0-13.1-4.9-13.1-13.9v-42.7h26.2v-23.4h-26.2v-25.6h-30.4v25.6h-16.2v23.4h16.2V539
		c0,25,14.4,37.7,39.2,37.7c9.4,0,18.5-2.1,24.8-6.6l-8.2-21.5C2483,551.1,2478.5,552.5,2474,552.5z"/>
	<path class="st0" d="M2525.1,538.8c-10.5,0-18.9,7.4-18.9,18.7c0,11.1,8.4,19.1,18.9,19.1c10.5,0,18.9-8,18.9-19.1
		C2544.1,546.2,2535.7,538.8,2525.1,538.8z"/>
	<path class="st0" d="M2613.9,493.5c9.6,0,18,4.5,23.6,14.4l23.6-12.7c-7.6-17.2-25-26.7-47-26.7c-34.2,0-58.6,22.4-58.6,54.1
		c0,31.6,24.4,54.1,58.6,54.1c22.1,0,39.4-9.8,47-26.5l-23.6-12.9c-5.7,10.1-14.1,14.4-23.6,14.4c-15.4,0-27.5-10.7-27.5-29.1
		C2586.4,504.3,2598.5,493.5,2613.9,493.5z"/>
	<path class="st0" d="M2741.8,468.6c-13.5,0-25.2,4.3-33.4,12.5v-50.7H2678v144.8h30.4v-51.9c0-19.3,10.5-28.3,25.2-28.3
		c13.5,0,21.3,7.8,21.3,24.8v55.4h30.4V515C2785.3,483,2766.6,468.6,2741.8,468.6z"/>
</g>
<g>
	<path class="st1" d="M1342,719.5v6.7h-8v3.6h8v40h4.2v-40h13.8v-3.6h-13.9v-6.3c0-5.8,2.8-8.8,8.2-8.8c2.6,0,5,0.8,6.8,2.4l1.7-3.2
		c-2.1-1.9-5.4-2.8-8.6-2.8C1346.3,707.5,1342,712.2,1342,719.5z"/>
	<path class="st1" d="M1409.8,725.8c-12.5,0-21.8,9.2-21.8,22.1c0,12.9,9.3,22.1,21.8,22.1c12.5,0,21.8-9.2,21.8-22.1
		C1431.6,735,1422.3,725.8,1409.8,725.8z M1409.8,766.3c-10,0-17.5-7.4-17.5-18.4s7.5-18.4,17.5-18.4c10,0,17.5,7.4,17.5,18.4
		S1419.8,766.3,1409.8,766.3z"/>
	<path class="st1" d="M1482.6,766.4c-5.3,0-8.1-3.1-8.1-8.7v-28h13.8v-3.6h-13.8v-9.5h-4.2v9.5h-8v3.6h8v28.4
		c0,7.3,4.2,11.8,11.8,11.8c3.3,0,6.8-1,8.9-3.1l-1.8-2.9C1487.6,765.6,1485.2,766.4,1482.6,766.4z"/>
	<path class="st1" d="M1543.2,725.8c-12.5,0-21.8,9.2-21.8,22.1c0,12.9,9.3,22.1,21.8,22.1s21.8-9.2,21.8-22.1
		C1565,735,1555.7,725.8,1543.2,725.8z M1543.2,766.3c-10,0-17.5-7.4-17.5-18.4s7.5-18.4,17.5-18.4c10,0,17.5,7.4,17.5,18.4
		S1553.2,766.3,1543.2,766.3z"/>
	<path class="st1" d="M1638.1,736c-3.5-6.5-10.3-10.2-18.3-10.2c-12.3,0-21.7,8.7-21.7,21.1s9.3,21.2,21.7,21.2
		c7.8,0,14.5-3.6,18.1-9.9v7.3c0,11.6-5.4,16.9-17,16.9c-7,0-13.3-2.3-17.6-6.3l-2.3,3.2c4.4,4.4,12,6.9,19.9,6.9
		c14,0,21.1-6.6,21.1-21.2v-38.9h-4V736z M1620.2,764.3c-10.3,0-17.8-7.2-17.8-17.4s7.5-17.4,17.8-17.4c10.3,0,17.9,7.1,17.9,17.4
		S1630.5,764.3,1620.2,764.3z"/>
	<path class="st1" d="M1688.8,735.7v-9.5h-4v43.5h4.2V747c0-10.8,5.8-17.2,15.4-17.2c0.3,0,0.7,0.1,1,0.1v-4.1
		C1697.3,725.8,1691.5,729.3,1688.8,735.7z"/>
	<path class="st1" d="M1756.7,725.8c-6.8,0-13.1,2.3-17.4,6.2l2.1,3c3.6-3.3,9-5.5,15-5.5c8.5,0,12.9,4.3,12.9,12.4v3.5h-14.9
		c-12.1,0-16.3,5.6-16.3,12.2c0,7.4,5.9,12.4,15.7,12.4c7.6,0,12.9-3.1,15.7-8.1v7.8h4v-27.6
		C1773.4,731.3,1767.4,725.8,1756.7,725.8z M1769.2,756.8c-2.5,6.3-7.6,9.8-14.9,9.8c-7.7,0-12.1-3.5-12.1-9.2c0-5,3.2-8.8,12.2-8.8
		h14.8V756.8z"/>
	<rect x="1849.7" y="726.1" class="st1" width="4.2" height="43.5"/>
	<path class="st1" d="M1816.5,719.5v6.7h-8v3.6h8v40h4.2v-40h13.8v-3.6h-13.9v-6.3c0-5.8,2.8-8.8,8.2-8.8c2.6,0,5,0.8,6.8,2.4
		l1.7-3.2c-2.1-1.9-5.4-2.8-8.6-2.8C1820.8,707.5,1816.5,712.2,1816.5,719.5z"/>
	<path class="st1" d="M1851.7,708.8c-1.9,0-3.4,1.6-3.4,3.4c0,1.8,1.5,3.3,3.4,3.3c1.9,0,3.4-1.5,3.4-3.4
		C1855.2,710.3,1853.7,708.8,1851.7,708.8z"/>
	<path class="st1" d="M1912.5,725.8c-11.9,0-20.9,9.2-20.9,22.1c0,12.9,9.3,22.1,22.4,22.1c6.6,0,12.6-2.4,16.4-7.1l-2.4-2.8
		c-3.3,4.1-8.4,6.1-13.9,6.1c-10.4,0-18-7-18.4-17.4h37.5c0-0.4,0.1-0.8,0.1-1.2C1933.3,734.8,1924.5,725.8,1912.5,725.8z
		 M1895.9,745.7c0.7-9.5,7.4-16.2,16.7-16.2s16.1,6.8,16.7,16.2H1895.9z"/>
	<path class="st1" d="M2058.9,745.2l-3.4-1.1c-0.9,4.7-2.3,8.6-4.2,11.8l-17.3-18.3c9.9-5.8,13.3-9.8,13.3-15.6
		c0-6.9-5-11.1-12.8-11.1c-8.5,0-13.8,4.8-13.8,11.9c0,4.5,1.6,7.9,7.5,14.1l0.1,0.2c-11.1,6.5-15.1,11.6-15.1,18.4
		c0,8.7,7.9,14.6,19,14.6c8,0,14.7-2.8,19.4-8.4l8.4,8.8l2.5-2.8l-8.7-9.2C2056.2,755,2057.9,750.5,2058.9,745.2z M2024.7,722.9
		c0-5.2,3.7-8.7,9.9-8.7c5.9,0,9.2,3.2,9.2,7.9c0,4.6-2.9,7.7-12.1,13C2026.1,729.2,2024.7,726.6,2024.7,722.9z M2032.4,766.6
		c-8.9,0-15.1-4.6-15.1-11.4c0-5.6,3.1-9.5,13.4-15.6l18.4,19.4C2045.1,764.1,2039.3,766.6,2032.4,766.6z"/>
	<polygon class="st1" points="2187.6,764.9 2172.8,726.1 2169.2,726.1 2154.4,765 2139.8,726.1 2135.8,726.1 2152.4,769.7 
		2156.2,769.7 2171,731.9 2185.6,769.7 2189.6,769.7 2206.1,726.1 2202.2,726.1 	"/>
	<path class="st1" d="M2255.6,725.8c-11.9,0-20.9,9.2-20.9,22.1c0,12.9,9.3,22.1,22.4,22.1c6.6,0,12.6-2.4,16.4-7.1l-2.4-2.8
		c-3.3,4.1-8.4,6.1-13.9,6.1c-10.4,0-18-7-18.4-17.4h37.5c0-0.4,0.1-0.8,0.1-1.2C2276.4,734.8,2267.6,725.8,2255.6,725.8z
		 M2238.9,745.7c0.7-9.5,7.4-16.2,16.7-16.2s16.1,6.8,16.7,16.2H2238.9z"/>
	<path class="st1" d="M2336.2,725.8c-7.7,0-14.2,3.8-17.7,10.3v-28.3h-4.2v61.9h4v-10.3c3.4,6.7,10,10.6,17.9,10.6
		c12.3,0,21.5-9.1,21.5-22.1C2357.7,734.8,2348.5,725.8,2336.2,725.8z M2336,766.3c-10,0-17.5-7.4-17.5-18.4s7.5-18.4,17.5-18.4
		s17.6,7.4,17.6,18.4S2346,766.3,2336,766.3z"/>
	<path class="st1" d="M2430.2,736.2c-3.5-6.6-10-10.4-17.8-10.4c-12.3,0-21.5,9-21.5,22.1c0,13,9.3,22.1,21.5,22.1
		c7.8,0,14.4-3.8,17.9-10.6v10.3h4.1v-61.9h-4.2V736.2z M2412.7,766.3c-10,0-17.5-7.4-17.5-18.4s7.5-18.4,17.5-18.4
		c10,0,17.5,7.4,17.5,18.4S2422.7,766.3,2412.7,766.3z"/>
	<path class="st1" d="M2493.1,725.8c-11.9,0-20.9,9.2-20.9,22.1c0,12.9,9.3,22.1,22.4,22.1c6.6,0,12.6-2.4,16.4-7.1l-2.4-2.8
		c-3.3,4.1-8.4,6.1-13.9,6.1c-10.4,0-18-7-18.4-17.4h37.5c0-0.4,0.1-0.8,0.1-1.2C2513.9,734.8,2505,725.8,2493.1,725.8z
		 M2476.4,745.7c0.7-9.5,7.4-16.2,16.7-16.2s16.1,6.8,16.7,16.2H2476.4z"/>
	<path class="st1" d="M2551.2,737.7c0-4.7,3.8-8.2,12.3-8.2c4.7,0,9.4,1.3,13.1,3.9l1.9-3.3c-3.4-2.6-9.4-4.3-14.9-4.3
		c-11,0-16.5,5.3-16.5,11.9c0,17.1,28.9,7.8,28.9,20.4c0,4.9-3.7,8.2-12.8,8.2c-6.4,0-12.3-2.4-15.7-5.3l-1.9,3.3
		c3.4,3.2,10.3,5.6,17.4,5.6c11.1,0,17.2-4.8,17.2-11.9C2580,741.5,2551.2,750.8,2551.2,737.7z"/>
	<path class="st1" d="M2618.8,708.8c-1.9,0-3.4,1.6-3.4,3.4c0,1.8,1.5,3.3,3.4,3.3c1.9,0,3.4-1.5,3.4-3.4
		C2622.2,710.3,2620.7,708.8,2618.8,708.8z"/>
	<rect x="2616.7" y="726.1" class="st1" width="4.2" height="43.5"/>
	<path class="st1" d="M2698.7,736c-3.5-6.5-10.3-10.2-18.3-10.2c-12.3,0-21.7,8.7-21.7,21.1s9.3,21.2,21.7,21.2
		c7.8,0,14.5-3.6,18.1-9.9v7.3c0,11.6-5.4,16.9-17,16.9c-7,0-13.3-2.3-17.6-6.3l-2.3,3.2c4.4,4.4,12,6.9,19.9,6.9
		c14,0,21.1-6.6,21.1-21.2v-38.9h-4V736z M2680.8,764.3c-10.3,0-17.8-7.2-17.8-17.4s7.5-17.4,17.8-17.4c10.3,0,17.9,7.1,17.9,17.4
		S2691.1,764.3,2680.8,764.3z"/>
	<path class="st1" d="M2766.7,725.8c-8.3,0-14.3,3.7-17.3,9.8v-9.4h-4v43.5h4.2v-23.2c0-10.3,6.3-16.9,16.5-16.9
		c8.8,0,14.1,5.2,14.1,15v25.1h4.2v-25.4C2784.4,732.1,2777.3,725.8,2766.7,725.8z"/>
</g>
<path class="st2" d="M701.6,236.8c-200.2,0-362.5,162.3-362.5,362.5s162.3,362.5,362.5,362.5s362.5-162.3,362.5-362.5
	S901.8,236.8,701.6,236.8z M573.8,757.1c-27.6,0-49.9-22.3-49.9-49.9c0-27.6,22.3-49.9,49.9-49.9s49.9,22.3,49.9,49.9
	C623.7,734.8,601.3,757.1,573.8,757.1z M770.8,757.1l-138.6-317h95.4c8.1,0,15.4,4.8,18.6,12.2l133.3,304.9H770.8z"/>
<ellipse transform="matrix(0.7071 -0.7071 0.7071 0.7071 -90.0409 225.9807)" class="st1" cx="227.8" cy="221.7" rx="49.9" ry="49.9"/>
<rect x="1196.4" y="170.6" transform="matrix(-1 -1.224647e-16 1.224647e-16 -1 2397.709 1198.6384)" class="st1" width="4.9" height="857.5"/>
</svg>
